<?xml version="1.0" standalone="no"?>
<!DOCTYPE svg PUBLIC "-//W3C//DTD SVG 20010904//EN"
 "http://www.w3.org/TR/2001/REC-SVG-20010904/DTD/svg10.dtd">
<svg version="1.0" xmlns="http://www.w3.org/2000/svg"
 width="1024.000000pt" height="1024.000000pt" viewBox="0 0 1024.000000 1024.000000"
 preserveAspectRatio="xMidYMid meet">
<metadata>
Created by potrace 1.11, written by Peter Selinger 2001-2013
</metadata>
<g transform="translate(0.000000,1024.000000) scale(0.100000,-0.100000)"
fill="#000000" stroke="none">
<path d="M2250 10233 c-326 -23 -618 -102 -905 -243 -483 -237 -854 -606
-1090 -1085 -150 -304 -220 -562 -246 -900 -7 -94 -9 -1069 -7 -2985 4 -3103
0 -2873 58 -3145 53 -247 193 -576 335 -790 245 -368 557 -642 950 -835 245
-121 490 -194 770 -232 148 -19 5862 -19 6010 0 280 38 525 111 770 232 487
239 856 608 1095 1095 120 244 189 472 232 770 19 132 19 5878 0 6010 -43 298
-112 527 -232 770 -195 395 -465 703 -835 950 -211 141 -543 282 -790 335
-273 58 -36 54 -3185 55 -1587 1 -2905 0 -2930 -2z m2860 -2118 c67 -132 155
-303 195 -380 75 -146 99 -192 540 -1050 147 -286 336 -653 420 -815 84 -162
210 -407 280 -545 198 -387 595 -1143 615 -1170 4 -5 74 -136 155 -290 81
-154 171 -323 201 -376 29 -53 152 -285 275 -515 122 -231 225 -423 229 -429
4 -5 35 -64 70 -130 35 -66 99 -187 142 -268 44 -82 77 -151 74 -154 -5 -6
-805 120 -1671 262 -438 72 -1053 171 -1950 315 -476 76 -788 127 -848 138
l-38 7 333 447 c205 275 339 447 350 448 16 0 938 -147 1626 -260 167 -28 314
-50 328 -50 25 0 23 4 -57 158 -45 86 -134 254 -197 372 -277 516 -340 635
-427 800 -50 96 -131 249 -180 340 -123 231 -280 524 -467 878 -89 166 -166
302 -172 302 -6 0 -83 -141 -170 -313 -87 -171 -205 -400 -261 -507 -56 -107
-157 -303 -225 -435 -67 -132 -140 -271 -160 -310 -21 -38 -126 -241 -233
-450 -256 -500 -420 -817 -712 -1377 l-160 -307 -566 -1 -566 0 162 317 c88
175 191 374 227 443 36 69 108 208 160 310 52 102 191 372 308 600 117 228
268 521 335 650 67 129 182 352 255 495 144 282 388 757 645 1255 176 340 202
392 637 1240 160 311 301 585 315 608 l25 44 17 -29 c10 -15 73 -136 141 -268z"/>
</g>
</svg>
