<?xml version="1.0" standalone="no"?>
<!DOCTYPE svg PUBLIC "-//W3C//DTD SVG 20010904//EN"
 "http://www.w3.org/TR/2001/REC-SVG-20010904/DTD/svg10.dtd">
<svg version="1.0" xmlns="http://www.w3.org/2000/svg"
 width="700.000000pt" height="700.000000pt" viewBox="0 0 700.000000 700.000000"
 preserveAspectRatio="xMidYMid meet">
<metadata>
Created by potrace 1.11, written by Peter Selinger 2001-2013
</metadata>
<g transform="translate(0.000000,700.000000) scale(0.100000,-0.100000)"
fill="#000000" stroke="none">
<path d="M0 3500 l0 -3500 3500 0 3500 0 0 3500 0 3500 -3500 0 -3500 0 0
-3500z m3655 1615 c136 -264 296 -574 355 -690 437 -854 731 -1418 925 -1775
34 -63 127 -236 205 -385 79 -148 146 -274 150 -280 4 -5 42 -77 85 -160 44
-82 111 -211 151 -285 40 -74 71 -136 69 -138 -4 -4 -68 6 -360 53 -82 13
-179 29 -215 34 -36 6 -200 32 -365 60 -165 27 -471 77 -680 111 -956 154
-1310 212 -1317 217 -5 2 4 21 19 41 72 99 108 147 114 152 3 3 54 70 113 150
200 271 182 251 219 245 643 -107 1250 -205 1253 -202 3 2 -15 40 -39 83 -24
43 -99 185 -167 314 -68 129 -132 251 -143 270 -11 19 -69 127 -128 240 -261
498 -498 935 -506 933 -7 -2 -331 -623 -700 -1343 -171 -334 -308 -599 -393
-760 -33 -63 -81 -157 -107 -207 l-48 -93 -373 0 -374 0 148 287 c81 159 233
457 339 663 106 206 300 584 432 840 201 389 557 1083 768 1495 152 298 318
615 320 613 2 -2 114 -219 250 -483z"/>
</g>
</svg>
