<?xml version="1.0" standalone="no"?>
<!DOCTYPE svg PUBLIC "-//W3C//DTD SVG 20010904//EN"
 "http://www.w3.org/TR/2001/REC-SVG-20010904/DTD/svg10.dtd">
<svg version="1.0" xmlns="http://www.w3.org/2000/svg"
 width="700.000000pt" height="700.000000pt" viewBox="0 0 700.000000 700.000000"
 preserveAspectRatio="xMidYMid meet">
<metadata>
Created by potrace 1.11, written by Peter Selinger 2001-2013
</metadata>
<g transform="translate(0.000000,700.000000) scale(0.100000,-0.100000)"
fill="#000000" stroke="none">
<path d="M1917 6994 c-1 -1 -45 -4 -97 -8 -52 -3 -108 -8 -125 -11 -16 -3 -46
-8 -65 -11 -196 -31 -461 -131 -643 -242 -163 -99 -367 -275 -472 -407 -22
-27 -43 -52 -46 -55 -21 -19 -126 -183 -172 -270 -117 -220 -189 -461 -213
-710 -9 -95 -10 -3416 -1 -3530 4 -47 9 -96 11 -110 3 -14 7 -41 10 -60 12
-78 58 -246 91 -334 194 -518 604 -925 1125 -1115 132 -49 240 -76 390 -97
105 -15 352 -18 1790 -17 1441 0 1743 3 1800 18 8 3 33 7 55 10 93 14 289 70
370 105 197 87 301 146 440 251 354 266 616 677 705 1104 21 101 24 119 36
235 9 85 9 3432 0 3530 -7 76 -34 249 -41 260 -2 4 -7 22 -10 41 -10 57 -75
239 -119 334 -155 330 -416 621 -731 815 -197 122 -500 230 -710 255 -33 4
-76 9 -95 12 -29 4 -3278 11 -3283 7z m1633 -980 c25 -51 48 -94 53 -94 4 0 7
-6 7 -14 0 -15 55 -122 71 -140 5 -6 9 -18 9 -27 0 -10 3 -19 8 -21 4 -1 27
-43 52 -93 25 -49 48 -91 53 -93 4 -2 7 -10 7 -17 0 -8 13 -37 30 -65 16 -27
27 -50 24 -50 -3 0 2 -7 10 -16 9 -8 14 -19 11 -24 -3 -5 -2 -10 2 -12 10 -4
46 -74 43 -84 -1 -4 2 -10 7 -13 5 -3 20 -28 33 -56 14 -27 28 -51 33 -53 4
-2 7 -11 7 -20 0 -9 9 -28 20 -42 11 -14 20 -32 20 -42 0 -9 3 -18 8 -20 4 -1
23 -34 42 -73 19 -38 39 -73 43 -76 5 -3 9 -10 9 -15 1 -12 61 -137 69 -144 4
-3 9 -15 13 -28 4 -12 12 -19 18 -16 6 4 8 3 5 -3 -3 -5 11 -43 32 -84 126
-249 166 -325 176 -331 5 -4 7 -8 3 -8 -7 0 23 -61 54 -110 9 -14 19 -36 23
-50 4 -14 10 -27 14 -30 11 -9 51 -92 51 -107 0 -8 5 -11 10 -8 6 3 10 1 10
-6 0 -16 100 -212 112 -220 5 -3 9 -9 8 -13 -3 -12 53 -126 62 -126 4 0 8 -9
8 -19 0 -11 6 -26 13 -33 6 -7 37 -63 67 -123 30 -61 58 -111 62 -113 4 -2 8
-11 8 -21 0 -9 9 -27 20 -39 12 -12 18 -22 15 -22 -8 0 47 -104 58 -108 4 -2
7 -12 7 -22 0 -10 4 -21 9 -24 9 -6 61 -112 60 -122 0 -4 4 -10 9 -13 5 -3 26
-40 47 -81 21 -41 43 -78 49 -82 6 -4 8 -8 4 -8 -9 0 30 -78 43 -86 5 -3 7 -9
4 -14 -3 -4 2 -13 10 -20 8 -7 12 -16 9 -21 -3 -5 0 -9 5 -9 6 0 11 -6 11 -14
0 -7 8 -24 19 -37 10 -13 19 -27 20 -32 0 -4 18 -40 38 -80 21 -39 44 -85 52
-102 8 -16 20 -33 26 -37 5 -4 6 -8 1 -8 -5 0 -4 -6 2 -12 6 -7 38 -67 72
-133 34 -66 67 -126 72 -132 6 -7 7 -13 2 -13 -5 0 -4 -4 1 -8 15 -10 47 -72
39 -72 -4 0 0 -6 9 -12 10 -7 19 -24 22 -37 2 -13 10 -31 18 -40 7 -9 26 -42
41 -73 15 -32 31 -60 37 -63 5 -4 9 -13 9 -22 0 -8 8 -27 18 -41 10 -15 25
-43 34 -63 l16 -36 -51 -2 c-29 -1 -58 -2 -64 -1 -7 0 -19 0 -25 0 -7 1 -30
-1 -50 -2 -21 -2 -38 0 -38 4 0 6 -41 2 -67 -7 -7 -2 -13 1 -13 7 0 9 -3 9
-11 1 -7 -7 -20 -8 -34 -3 -12 4 -27 5 -33 1 -7 -4 -27 -6 -44 -4 -18 2 -51 3
-73 3 -263 -5 -1588 -3 -1591 2 -2 3 -18 3 -35 -2 -20 -6 -39 -6 -50 0 -12 7
-20 7 -24 0 -5 -8 -11 -7 -20 0 -8 7 -19 9 -25 5 -17 -10 -60 -13 -60 -4 0 8
-46 3 -62 -7 -4 -3 -8 -1 -8 3 0 12 -124 10 -132 -2 -5 -6 -8 -5 -8 2 0 7 -7
10 -15 7 -9 -4 -56 -7 -107 -8 -96 -1 -140 13 -119 38 7 9 7 16 -1 24 -9 9 -9
12 1 12 7 0 9 5 5 12 -11 17 -11 58 -1 58 4 0 3 9 -3 20 -6 11 -7 20 -3 20 4
0 8 11 8 25 0 14 -4 25 -9 25 -5 0 -3 7 4 15 10 12 10 15 0 15 -10 0 -10 3 0
15 10 12 10 15 0 15 -10 0 -10 3 -1 14 8 9 8 16 2 20 -7 4 -7 15 -1 31 6 15 6
27 0 30 -6 4 -6 14 1 27 8 16 8 19 -1 13 -9 -6 -9 -2 -1 14 9 16 9 21 0 21 -8
0 -8 4 1 15 8 10 9 15 1 15 -7 0 -8 8 -1 25 6 15 6 26 0 30 -6 4 -6 14 1 27 8
16 8 19 -1 13 -9 -6 -9 -2 -1 14 7 12 8 21 2 21 -5 0 -7 8 -4 18 4 17 50 17
879 17 482 0 881 3 887 7 9 6 9 8 0 8 -7 0 -12 3 -12 8 3 13 -25 72 -34 72 -4
0 -5 5 -2 10 3 6 1 10 -5 10 -6 0 -9 4 -6 9 4 5 3 11 -1 13 -8 3 -22 29 -98
175 -23 45 -45 79 -49 75 -4 -4 -6 -2 -4 3 3 9 -60 144 -73 155 -3 3 -11 20
-18 38 -8 17 -18 32 -23 32 -5 0 -6 5 -3 10 3 6 1 10 -5 10 -7 0 -10 6 -7 14
3 8 2 16 -3 18 -4 2 -33 51 -63 110 -30 59 -58 104 -61 101 -5 -6 -10 21 -7
40 0 4 -3 7 -8 7 -5 0 -14 15 -22 33 -7 17 -15 34 -18 37 -3 3 -17 25 -29 50
-89 171 -108 205 -114 208 -5 2 -8 12 -8 22 0 10 -3 20 -7 22 -7 3 -77 131
-107 195 -6 13 -15 23 -19 23 -5 0 -5 5 -2 10 3 6 1 10 -5 10 -6 0 -9 4 -6 9
4 5 3 11 -1 13 -5 1 -19 26 -33 53 -13 28 -37 71 -51 97 -15 25 -25 49 -22 52
3 3 -2 8 -11 12 -9 3 -16 12 -16 20 0 8 -11 32 -25 54 -14 22 -22 40 -18 40 5
0 3 4 -2 8 -6 4 -17 21 -25 37 -8 17 -28 53 -44 80 -16 28 -29 56 -29 63 0 6
-4 12 -9 12 -4 0 -8 7 -8 15 0 8 -5 15 -12 15 -6 0 -8 3 -5 7 4 3 3 11 -2 17
-5 6 -26 43 -46 81 -21 39 -60 113 -88 165 -28 52 -66 125 -86 163 -34 64 -51
82 -51 53 0 -7 -7 -19 -15 -26 -8 -7 -12 -16 -9 -21 3 -5 0 -9 -6 -9 -6 0 -8
-4 -5 -10 3 -5 2 -10 -4 -10 -5 0 -13 -10 -18 -22 -4 -13 -28 -61 -53 -108
-24 -47 -43 -88 -42 -92 1 -5 -2 -8 -6 -8 -5 0 -19 -24 -33 -52 -13 -29 -26
-55 -29 -58 -3 -3 -23 -41 -45 -85 -22 -44 -43 -82 -46 -85 -4 -3 -10 -16 -14
-30 -4 -14 -11 -27 -14 -30 -4 -3 -22 -35 -40 -72 -18 -38 -38 -68 -43 -68 -5
0 -6 -5 -2 -11 3 -6 2 -14 -3 -18 -5 -3 -33 -54 -63 -113 -29 -60 -57 -108
-62 -108 -4 0 -7 -3 -6 -7 3 -9 -68 -150 -84 -170 -6 -7 -7 -13 -2 -13 5 0 5
-4 -1 -8 -5 -4 -21 -29 -35 -57 -13 -27 -27 -52 -30 -55 -3 -3 -25 -45 -50
-95 -25 -49 -49 -93 -55 -97 -5 -4 -6 -8 -1 -8 5 0 1 -9 -9 -20 -10 -11 -15
-20 -11 -20 4 0 -1 -12 -12 -27 -10 -16 -27 -47 -37 -70 -11 -24 -22 -43 -26
-43 -4 0 -10 -13 -14 -30 -4 -16 -13 -33 -20 -37 -8 -5 -14 -11 -14 -16 -1 -4
-7 -23 -15 -42 -9 -20 -15 -38 -15 -42 1 -3 -4 -9 -9 -12 -16 -10 -52 -84 -45
-94 3 -6 2 -7 -3 -4 -5 3 -23 -22 -38 -56 -16 -34 -36 -70 -44 -79 -8 -10 -11
-18 -6 -18 5 0 0 -7 -10 -15 -11 -8 -17 -15 -13 -15 4 0 -6 -24 -23 -52 -17
-29 -51 -93 -76 -143 -25 -49 -63 -121 -84 -160 -21 -38 -36 -73 -33 -77 2 -5
0 -8 -6 -8 -5 0 -26 -33 -46 -74 -20 -41 -40 -77 -43 -81 -4 -4 -7 -10 -8 -13
-2 -18 -28 -62 -37 -62 -6 0 -8 -3 -4 -6 6 -6 -42 -102 -66 -131 -5 -7 -6 -13
-1 -13 5 0 5 -4 -1 -8 -13 -9 -68 -112 -60 -112 3 0 1 -6 -5 -12 -7 -7 -24
-35 -38 -63 -21 -39 -32 -50 -52 -50 -14 -1 -31 -5 -39 -9 -10 -7 -12 -5 -6 5
8 12 6 12 -8 0 -9 -7 -17 -9 -17 -3 0 10 -51 9 -69 -2 -6 -4 -11 -3 -11 2 0 5
-28 7 -62 5 -76 -4 -77 -4 -108 0 -14 2 -31 -2 -39 -7 -12 -9 -13 -8 -6 4 8
13 7 13 -8 1 -9 -7 -17 -9 -17 -4 0 13 -103 11 -112 -2 -5 -6 -8 -6 -8 1 0 7
-19 9 -50 8 -27 -2 -52 1 -55 6 -3 6 -1 10 4 10 6 0 11 9 11 20 0 11 5 20 12
20 6 0 8 3 5 7 -4 3 0 15 10 25 9 10 13 18 9 18 -3 0 5 18 19 40 14 22 23 40
20 40 -3 0 5 17 18 38 13 20 32 56 42 80 10 23 22 42 26 42 4 0 10 13 14 30 4
16 11 32 16 36 8 4 32 54 40 82 1 4 14 27 28 52 15 25 40 72 56 105 17 33 33
62 38 63 4 2 7 11 7 21 0 9 4 21 9 26 13 15 131 245 125 245 -3 0 2 7 10 16 9
8 16 22 16 30 0 8 5 14 10 14 6 0 10 9 10 20 0 11 5 20 12 20 6 0 9 3 6 6 -3
3 12 37 33 76 21 39 39 77 39 84 0 7 4 14 8 16 5 2 32 50 61 108 29 58 62 119
72 136 10 17 16 34 12 37 -3 4 -1 7 5 7 7 0 12 7 12 16 0 9 8 28 18 42 10 15
31 54 48 87 16 33 31 62 34 65 3 3 29 55 59 115 30 61 61 118 69 128 8 9 12
17 8 17 -4 0 1 15 12 33 11 17 41 75 68 127 26 52 52 98 57 101 5 4 6 12 3 18
-4 6 -3 11 2 11 5 0 15 15 23 33 7 17 20 43 30 57 9 14 18 28 19 32 1 4 4 17
7 28 3 11 9 20 14 20 5 0 9 7 9 15 0 8 5 15 11 15 5 0 7 5 4 10 -3 6 -2 10 4
10 6 0 8 7 5 15 -4 8 -2 15 4 15 5 0 20 25 33 55 13 30 28 55 32 55 5 0 7 7 3
15 -3 8 -2 15 2 15 9 0 57 91 54 103 -1 4 3 7 9 7 5 0 7 5 4 10 -3 6 -1 10 5
10 6 0 8 5 5 10 -3 6 -2 10 2 10 5 0 17 20 27 45 11 25 23 45 27 45 4 0 6 9 4
20 -2 11 0 18 4 16 8 -5 66 107 62 120 -2 4 2 10 7 13 14 9 134 241 124 241
-4 0 -2 4 4 8 12 8 46 69 42 76 -2 2 6 13 16 25 11 12 15 21 10 21 -5 0 -4 4
2 8 6 4 21 31 34 60 13 28 27 52 32 52 4 0 7 3 6 8 -4 12 86 186 102 199 8 7
12 13 7 13 -4 0 2 16 13 37 10 20 16 41 13 46 -3 6 -2 7 4 4 5 -3 20 17 33 46
13 29 28 55 33 58 5 3 8 9 8 13 -1 3 10 28 23 55 14 27 22 51 19 55 -4 3 -1 6
5 6 6 0 21 23 33 50 12 28 26 50 31 50 6 0 8 7 4 15 -3 8 -2 15 2 15 4 0 18
24 31 53 13 28 27 54 30 57 10 8 75 144 73 153 -1 4 3 7 8 7 6 0 10 7 10 15 0
34 28 -2 70 -91z m37 -2266 c3 -10 9 -18 14 -18 5 0 9 -9 9 -19 0 -11 3 -21 8
-23 4 -1 27 -43 52 -93 25 -49 48 -91 53 -93 4 -2 7 -10 7 -18 0 -8 4 -14 8
-14 5 0 9 -6 9 -12 0 -7 14 -37 31 -65 17 -29 28 -53 24 -53 -4 0 -2 -4 4 -8
10 -7 51 -81 83 -149 8 -18 19 -33 24 -33 4 0 5 -4 2 -10 -3 -5 -1 -10 5 -10
6 0 9 -4 5 -9 -3 -5 -1 -12 4 -15 4 -3 21 -32 36 -63 16 -32 33 -61 39 -65 6
-4 8 -8 3 -8 -4 0 3 -17 16 -37 13 -21 30 -53 38 -70 8 -18 17 -33 20 -33 6 0
11 -12 19 -48 1 -4 7 -13 12 -20 15 -17 98 -176 98 -186 0 -2 -322 -4 -715 -4
-715 0 -716 0 -709 21 3 11 19 42 35 69 16 26 25 48 21 48 -4 0 -2 4 3 8 12 8
71 125 67 131 -2 2 1 7 6 10 9 5 76 130 150 276 14 28 29 52 34 53 4 2 8 9 8
16 0 16 71 149 84 158 6 4 8 8 5 8 -4 0 6 24 21 53 16 28 60 113 98 187 103
197 109 210 122 225 7 8 9 15 6 15 -4 0 0 7 8 16 9 8 14 20 11 25 -4 5 -1 9 5
9 6 0 9 4 6 9 -4 5 -1 11 6 13 10 4 90 -128 105 -174z"/>
</g>
</svg>
