<?xml version="1.0" standalone="no"?>
<!DOCTYPE svg PUBLIC "-//W3C//DTD SVG 20010904//EN"
 "http://www.w3.org/TR/2001/REC-SVG-20010904/DTD/svg10.dtd">
<svg version="1.0" xmlns="http://www.w3.org/2000/svg"
 width="700.000000pt" height="700.000000pt" viewBox="0 0 700.000000 700.000000"
 preserveAspectRatio="xMidYMid meet">
<metadata>
Created by potrace 1.11, written by Peter Selinger 2001-2013
</metadata>
<g transform="translate(0.000000,700.000000) scale(0.100000,-0.100000)"
fill="#000000" stroke="none">
<path d="M1955 6464 c-721 -112 -1284 -692 -1363 -1404 -9 -84 -9 -3035 0
-3115 4 -33 12 -84 18 -113 7 -30 13 -59 14 -65 30 -151 123 -361 233 -525 75
-113 234 -287 333 -364 153 -119 327 -211 505 -269 49 -16 55 -18 175 -46
l115 -27 1475 -1 c811 0 1501 3 1533 7 361 46 676 199 933 453 216 214 353
447 429 730 24 92 25 97 42 215 10 71 10 3069 0 3135 -42 272 -120 477 -261
690 -249 374 -645 625 -1106 701 -25 5 -706 9 -1515 10 -1215 1 -1486 -1
-1560 -12z m1593 -831 c27 -54 83 -163 124 -243 41 -80 121 -235 178 -345 56
-110 137 -267 180 -350 198 -383 302 -585 511 -992 56 -109 125 -243 154 -298
29 -55 81 -154 115 -220 34 -66 82 -156 105 -200 23 -44 66 -125 95 -180 61
-116 157 -299 247 -470 35 -66 76 -145 91 -175 15 -30 29 -57 32 -60 3 -3 17
-30 32 -60 15 -30 48 -92 72 -137 25 -46 42 -85 38 -87 -4 -2 -534 -4 -1177
-3 l-1169 2 -1 265 c-1 146 1 271 3 277 3 10 163 13 753 13 412 0 749 3 749 6
0 6 -66 132 -130 249 -15 28 -49 91 -75 140 -81 153 -137 259 -155 290 -10 17
-49 91 -88 165 -39 74 -82 155 -96 180 -14 25 -32 59 -40 75 -8 17 -35 66 -59
110 -23 44 -69 130 -101 190 -32 61 -71 133 -86 160 -15 28 -51 95 -80 150
-29 55 -71 134 -93 175 -62 114 -146 271 -164 308 -9 17 -19 32 -23 32 -3 0
-27 -42 -53 -92 -26 -51 -73 -142 -105 -203 -32 -60 -96 -182 -142 -270 -46
-88 -96 -182 -112 -210 -15 -27 -32 -61 -38 -75 -5 -14 -14 -32 -20 -40 -5 -8
-26 -46 -46 -85 -19 -38 -48 -92 -62 -120 -25 -45 -58 -109 -238 -450 -28 -55
-75 -145 -104 -200 -29 -55 -62 -118 -75 -140 -12 -22 -44 -80 -70 -130 -26
-49 -64 -121 -85 -160 -21 -38 -70 -133 -110 -210 -40 -77 -84 -160 -98 -185
-14 -25 -39 -72 -55 -105 -16 -33 -38 -71 -47 -85 l-18 -25 -268 1 c-148 1
-270 2 -271 3 -1 0 13 29 31 64 18 34 81 157 141 272 105 205 177 345 335 650
95 184 235 457 365 710 54 105 121 235 150 290 29 55 103 199 165 320 62 121
143 279 180 350 37 72 119 231 183 355 63 124 152 295 196 380 44 85 122 237
173 337 51 101 96 183 100 183 4 0 29 -44 56 -97z m95 -2048 c38 -71 91 -170
117 -220 27 -49 69 -128 94 -175 26 -47 58 -107 72 -135 14 -27 37 -72 52
-100 15 -27 51 -94 80 -147 l52 -98 -615 0 -616 0 49 93 c28 50 72 135 100
187 27 52 75 145 107 205 32 61 77 146 100 190 23 44 68 130 100 190 32 61 72
137 90 170 18 33 40 75 49 93 l17 33 41 -78 c22 -43 72 -136 111 -208z"/>
</g>
</svg>
