<?xml version="1.0" standalone="no"?>
<!DOCTYPE svg PUBLIC "-//W3C//DTD SVG 20010904//EN"
 "http://www.w3.org/TR/2001/REC-SVG-20010904/DTD/svg10.dtd">
<svg version="1.0" xmlns="http://www.w3.org/2000/svg"
 width="1024.000000pt" height="1024.000000pt" viewBox="0 0 1024.000000 1024.000000"
 preserveAspectRatio="xMidYMid meet">
<metadata>
Created by potrace 1.11, written by Peter Selinger 2001-2013
</metadata>
<g transform="translate(0.000000,1024.000000) scale(0.100000,-0.100000)"
fill="#000000" stroke="none">
<path d="M2250 10233 c-326 -23 -618 -102 -905 -243 -487 -239 -856 -608
-1095 -1095 -121 -245 -194 -490 -232 -770 -19 -148 -19 -5862 0 -6010 38
-280 111 -525 232 -770 239 -487 608 -856 1095 -1095 245 -121 490 -194 770
-232 148 -19 5862 -19 6010 0 280 38 525 111 770 232 487 239 856 608 1095
1095 120 244 189 472 232 770 19 132 19 5878 0 6010 -43 298 -112 526 -232
770 -193 392 -466 703 -835 950 -211 141 -543 282 -790 335 -273 58 -36 54
-3185 55 -1587 1 -2905 0 -2930 -2z m2845 -1998 c62 -121 146 -285 187 -365
41 -80 124 -239 183 -355 59 -115 138 -268 175 -340 63 -121 107 -206 355
-690 51 -99 132 -256 180 -350 48 -93 125 -242 170 -330 45 -88 129 -250 185
-360 310 -603 404 -785 515 -990 18 -33 56 -105 85 -160 29 -55 55 -104 60
-110 6 -9 31 -56 160 -300 42 -80 102 -192 168 -315 25 -47 61 -114 80 -150
37 -71 85 -162 150 -282 47 -87 101 -189 163 -305 23 -43 54 -100 69 -128 32
-59 108 -201 160 -300 50 -94 115 -217 155 -290 18 -33 56 -105 85 -159 l52
-99 -63 6 c-35 4 -86 11 -114 17 -27 5 -111 19 -185 30 -74 11 -171 27 -215
34 -44 8 -127 22 -185 31 -58 9 -132 21 -165 27 -33 5 -100 16 -150 24 -49 7
-130 20 -180 28 -199 33 -475 78 -560 90 -49 8 -117 19 -150 24 -33 6 -105 18
-160 27 -55 9 -127 21 -160 27 -33 5 -100 16 -150 24 -49 7 -133 20 -185 29
-52 9 -135 22 -185 30 -49 8 -130 21 -180 29 -49 8 -148 24 -220 36 -71 11
-170 27 -220 35 -200 33 -284 46 -370 60 -209 33 -285 45 -370 59 -147 25
-346 57 -409 66 -32 5 -60 11 -63 13 -4 4 70 108 172 242 34 45 414 554 444
595 14 19 31 41 38 48 7 7 17 20 22 29 10 18 -13 20 306 -33 83 -14 192 -32
243 -40 140 -22 268 -42 362 -58 47 -8 146 -24 220 -36 74 -12 173 -28 220
-36 47 -8 126 -21 175 -29 50 -8 133 -21 185 -30 52 -8 136 -22 185 -30 50 -8
105 -17 123 -21 17 -3 32 -3 32 1 0 5 -22 49 -49 99 -27 50 -72 136 -101 191
-29 55 -70 133 -91 173 -22 39 -58 107 -80 150 -23 42 -54 100 -69 127 -15 28
-50 93 -77 145 -118 223 -146 276 -154 286 -4 5 -43 77 -85 160 -42 82 -86
167 -99 189 -12 22 -47 87 -78 145 -30 58 -75 143 -100 190 -25 47 -60 114
-79 150 -18 36 -35 67 -38 70 -3 3 -22 39 -44 80 -21 41 -56 108 -77 148 -22
39 -58 107 -80 150 -23 42 -54 100 -69 127 -27 49 -109 203 -159 298 -13 26
-29 47 -35 47 -6 -1 -34 -47 -62 -103 -28 -56 -89 -176 -136 -267 -130 -251
-232 -448 -326 -630 -46 -91 -113 -219 -147 -285 -78 -149 -308 -595 -490
-950 -54 -104 -140 -273 -193 -375 -105 -205 -194 -376 -270 -520 -84 -161
-161 -308 -249 -480 -47 -91 -91 -171 -97 -178 -9 -9 -136 -12 -590 -10 l-578
3 95 185 c88 173 157 308 362 705 78 152 161 312 370 720 51 99 128 250 172
335 44 85 124 241 178 345 54 105 134 260 178 345 137 267 241 468 344 670
210 407 288 560 363 705 72 139 119 231 365 710 146 284 267 519 342 665 141
273 328 636 353 687 14 29 29 51 34 50 4 -2 59 -102 121 -222z"/>
</g>
</svg>
