<?xml version="1.0" standalone="no"?>
<!DOCTYPE svg PUBLIC "-//W3C//DTD SVG 20010904//EN"
 "http://www.w3.org/TR/2001/REC-SVG-20010904/DTD/svg10.dtd">
<svg version="1.0" xmlns="http://www.w3.org/2000/svg"
 width="700.000000pt" height="700.000000pt" viewBox="0 0 700.000000 700.000000"
 preserveAspectRatio="xMidYMid meet">
<metadata>
Created by potrace 1.11, written by Peter Selinger 2001-2013
</metadata>
<g transform="translate(0.000000,700.000000) scale(0.100000,-0.100000)"
fill="#000000" stroke="none">
<path d="M3222 5253 c-98 -191 -212 -411 -252 -488 -40 -77 -136 -266 -215
-420 -219 -432 -687 -1339 -695 -1350 -5 -5 -106 -203 -225 -440 -120 -236
-222 -436 -228 -443 -6 -7 -55 -102 -108 -210 -71 -141 -95 -198 -86 -204 7
-4 66 -9 132 -10 573 -9 591 -8 612 31 8 14 38 69 68 121 81 144 116 211 120
229 5 23 151 298 167 314 7 8 26 43 41 78 57 128 92 198 516 1019 262 506 311
599 320 605 5 2 13 -1 19 -8 9 -11 298 -552 515 -962 52 -99 143 -270 202
-379 59 -110 109 -208 110 -218 4 -20 64 -130 76 -138 9 -7 61 -111 57 -115
-3 -3 -193 28 -993 160 -148 25 -274 45 -280 45 -5 0 -23 -19 -40 -42 -16 -23
-97 -132 -180 -241 -138 -183 -225 -303 -225 -312 0 -12 68 -23 1480 -250 432
-69 794 -130 805 -135 26 -11 76 -19 161 -25 38 -2 92 -11 119 -20 28 -8 82
-18 120 -20 39 -3 108 -12 154 -19 47 -8 91 -12 98 -9 9 4 -10 48 -64 152 -43
80 -112 210 -153 289 -41 78 -129 242 -195 365 -66 122 -135 254 -153 292 -19
39 -62 120 -97 180 -103 181 -296 549 -587 1115 -151 294 -331 643 -399 775
-68 132 -162 317 -209 410 -111 218 -318 616 -323 622 -3 2 -86 -153 -185
-344z"/>
</g>
</svg>
